# xmcd
#
# Track frame offsets: 
#        150
#        13920
#        27025
#        41202
#        53475
#        67410
#        79627
#        92517
#        106505
#        118152
#        133700
#        147982
#        161407
#        178900
#        195562
#
# Disc length: 2802 seconds
#
# Revision: 3
# Processed by: cddbd v1.5.2PL0 Copyright (c) Steve Scherf et al.
# Submitted via: ExactAudioCopy v1.3
#
DISCID=ca0af00f
DTITLE=Anne Murray - Anne Murray's Country Hits
DYEAR=1987
DGENRE=Country
TTITLE0=Cotton Jenny
TTITLE1=He Thinks I Still Care
TTITLE2=Son Of A Rotten Gambler
TTITLE3=Walk Right Back
TTITLE4=Lucky Me
TTITLE5=Blessed Are The Believers
TTITLE6=It's All I Can Do
TTITLE7=Another Sleepless Night
TTITLE8=Hey! Baby
TTITLE9=Somebody's Always Saying Goodbye
TTITLE10=A Little Good News
TTITLE11=Just Another Woman In Love
TTITLE12=Nobody Loves Me Like You Do
TTITLE13=Time Don't Run Out On Me
TTITLE14=I Don't Think I'm Ready For You
EXTD=
EXTT0=
EXTT1=
EXTT2=
EXTT3=
EXTT4=
EXTT5=
EXTT6=
EXTT7=
EXTT8=
EXTT9=
EXTT10=
EXTT11=
EXTT12=
EXTT13=
EXTT14=
PLAYORDER=
